<svg width="25" height="21" viewBox="0 0 25 21" fill="none" xmlns="http://www.w3.org/2000/svg">
<path fill-rule="evenodd" clip-rule="evenodd" d="M7.31583 0.0618419C6.77622 0.232051 6.48654 0.579576 6.32709 1.2481L6.22228 1.68738L5.97877 1.52868C5.51125 1.22394 5.00344 1.19338 4.58287 1.4446C4.17463 1.68857 4.10685 1.85191 3.62114 3.7631C3.3831 4.69961 3.09542 5.82826 2.98181 6.27119L2.77527 7.07652L2.64869 6.83687C2.4579 6.47551 2.15129 6.12538 1.90147 5.98359C1.45586 5.73067 1.04718 5.91201 0.784349 6.47939C0.64677 6.77628 0.271837 8.19432 0.106625 9.04248C0.0249965 9.46159 0.000395527 9.76761 4.25906e-06 10.3689C-0.000925001 11.7231 0.14942 12.1266 1.22663 13.6605C1.92548 14.6556 2.10889 15.2193 2.15721 16.52L2.18597 17.2943L1.85911 17.2604C1.45762 17.2187 1.16985 17.3097 0.955626 17.5461C0.78161 17.738 0.731723 17.9576 0.651758 18.8839C0.59972 19.4866 0.602165 19.5809 0.674794 19.765C0.769628 20.0055 0.906376 20.1427 1.14945 20.2411C1.26664 20.2885 2.65167 20.4298 5.37157 20.672C9.7478 21.0615 9.5932 21.0569 9.9025 20.8048C10.1548 20.5992 10.1959 20.4605 10.2809 19.5259L10.3604 18.6507L10.24 18.4309C10.1128 18.1985 9.86738 18.0065 9.64147 17.9626C9.48619 17.9324 9.48859 17.9084 9.69028 17.4648C9.78155 17.2642 9.90025 17.1195 10.1503 16.9042C10.5467 16.5631 10.857 16.158 11.0969 15.6687C11.3947 15.0614 11.4722 14.7335 11.5001 13.9642C11.5302 13.1357 11.4802 12.85 11.1232 11.8068C10.9616 11.3346 10.8777 11.0096 10.8777 10.8556C10.8777 10.712 11.1327 9.64236 11.5379 8.08617C11.9838 6.37399 12.1981 5.46766 12.1977 5.29508C12.1969 4.83647 11.8962 4.3789 11.4467 4.15222C11.293 4.07477 11.1541 4.04961 10.8676 4.04748C10.4357 4.04426 10.4655 4.12271 10.6384 3.44462C10.8139 2.7561 10.74 2.34576 10.3686 1.94765C10.1252 1.68667 9.78028 1.55076 9.36465 1.55204L9.03491 1.55308L9.03222 1.27747C9.02743 0.784083 8.76283 0.372653 8.31346 0.159714C7.99634 0.00944799 7.60405 -0.0290659 7.31583 0.0618419ZM16.8545 0.0840597C16.3094 0.266444 15.9522 0.732447 15.9447 1.27117L15.9407 1.55303L15.6126 1.55204C15.0474 1.55029 14.6022 1.81519 14.3691 2.2919C14.2246 2.58741 14.2172 2.94342 14.3449 3.44462C14.5175 4.12176 14.5439 4.04449 14.1402 4.04596C13.8904 4.04686 13.7234 4.07571 13.5671 4.14488C13.1089 4.34763 12.7865 4.82221 12.7856 5.29508C12.7853 5.46766 12.9995 6.37399 13.4454 8.08617C13.8506 9.64236 14.1056 10.712 14.1056 10.8556C14.1056 11.0095 14.022 11.3339 13.8613 11.8034C13.5396 12.7432 13.4637 13.12 13.4632 13.7797C13.4623 15.0123 13.8636 15.9677 14.7281 16.7915C15.0487 17.0971 15.2137 17.2959 15.298 17.4784C15.4942 17.9031 15.4969 17.9324 15.3419 17.9626C15.1159 18.0065 14.8706 18.1985 14.7433 18.4309L14.6229 18.6507L14.7025 19.5259C14.7875 20.4605 14.8285 20.5992 15.0808 20.8048C15.3599 21.0323 15.4627 21.0406 16.6804 20.9335C22.5186 20.4199 23.6345 20.3121 23.8248 20.2431C23.9383 20.2019 24.085 20.1063 24.1507 20.0307C24.3688 19.7797 24.3946 19.6145 24.331 18.8773C24.2516 17.9579 24.2015 17.7378 24.0277 17.5461C23.8135 17.3097 23.5257 17.2187 23.1242 17.2604L22.7974 17.2943L22.8261 16.52C22.8744 15.2199 23.0577 14.6564 23.7567 13.6595C24.3771 12.7748 24.5503 12.4874 24.7212 12.0597C25.0312 11.2836 25.0859 10.1604 24.8693 9.0188C24.7169 8.21555 24.3375 6.77841 24.199 6.47939C23.9361 5.91201 23.5275 5.73067 23.0819 5.98359C22.832 6.12538 22.5254 6.47551 22.3346 6.83687L22.2081 7.07652L22.0015 6.27119C21.8879 5.82826 21.6002 4.69961 21.3622 3.7631C20.8765 1.85191 20.8087 1.68857 20.4004 1.4446C19.9799 1.19338 19.4721 1.22394 19.0046 1.52868L18.761 1.68738L18.6562 1.2481C18.4921 0.560248 18.2073 0.22504 17.6485 0.0621261C17.3449 -0.0263183 17.1701 -0.0214862 16.8545 0.0840597ZM7.99018 0.727662C8.16688 0.816154 8.3187 1.00129 8.35846 1.17675C8.37973 1.2705 8.12316 2.38783 7.53039 4.78317C7.05803 6.692 6.67156 8.31399 6.67156 8.38756C6.67156 8.63579 6.93253 8.78174 7.16284 8.66236C7.28399 8.59955 7.28888 8.58216 8.04055 5.53692C8.39103 4.11693 8.71065 2.84502 8.7508 2.71053C8.88241 2.26945 9.27569 2.07892 9.67145 2.26447C9.91937 2.38073 10.0462 2.57183 10.0462 2.82901C10.0462 2.93399 9.67209 4.52874 9.2148 6.3729C8.7575 8.21706 8.38369 9.77998 8.38409 9.84606C8.38501 9.99457 8.42434 10.054 8.57131 10.129C8.71808 10.2039 8.90305 10.1589 8.97368 10.0311C9.004 9.97624 9.30043 8.83717 9.63243 7.49989C9.96442 6.16261 10.2717 5.01582 10.3152 4.95149C10.4129 4.80705 10.6703 4.68421 10.8753 4.68421C11.2226 4.68421 11.513 4.97243 11.5133 5.31758C11.5134 5.41844 11.2137 6.65325 10.8474 8.06163C10.0617 11.0815 10.0813 10.8738 10.4759 12.0033C10.7802 12.874 10.8426 13.188 10.8385 13.8271C10.8345 14.4371 10.7152 14.9214 10.43 15.4851C10.2626 15.8162 10.142 15.9699 9.7522 16.349C9.24835 16.8391 9.02117 17.1801 8.90408 17.6222C8.84451 17.8473 8.82275 17.8761 8.71999 17.8663C8.65587 17.8601 7.35994 17.7473 5.84011 17.6155C4.32028 17.4837 3.03052 17.3666 2.97393 17.3551C2.87582 17.3353 2.86976 17.2979 2.84173 16.54C2.80862 15.6447 2.69667 15.0316 2.46039 14.4523C2.26926 13.9836 2.15569 13.7938 1.62103 13.0498C0.818634 11.9331 0.679 11.5301 0.684184 10.3452C0.687168 9.66046 0.707563 9.44771 0.820541 8.92405C1.1092 7.58606 1.42456 6.53174 1.53607 6.53174C1.60068 6.53174 1.91863 6.89774 2.01772 7.08623C2.27322 7.57204 2.31743 7.96983 2.19575 8.68719C2.01606 9.74667 2.10722 9.98287 3.08955 11.0029C4.1806 12.1358 4.51778 12.8551 4.3241 13.6369C4.26839 13.862 4.27147 13.8947 4.35946 14.0093C4.48667 14.1751 4.69076 14.1975 4.83979 14.0619C5.04917 13.8714 5.12478 13.152 4.98783 12.6538C4.8167 12.0312 4.44221 11.4727 3.58098 10.5558C2.92942 9.86212 2.8567 9.76865 2.8567 9.62497C2.8567 9.464 4.66607 2.35898 4.74451 2.21189C4.78188 2.14183 4.8615 2.0512 4.92147 2.01056C5.27644 1.76971 5.94116 2.15869 5.95099 2.61309C5.95285 2.69698 5.63969 4.03265 5.25517 5.58131C4.51303 8.57018 4.51235 8.57449 4.7588 8.69349C4.87657 8.75033 5.12453 8.70277 5.18229 8.61224C5.19702 8.58922 5.62717 6.88059 6.13816 4.81529C6.69567 2.56226 7.10205 1.01284 7.15414 0.941786C7.33862 0.690143 7.7202 0.592414 7.99018 0.727662ZM17.5747 0.740548C17.6669 0.786072 17.7815 0.876649 17.8292 0.941786C17.8813 1.01284 18.2877 2.56226 18.8452 4.81529C19.3562 6.88059 19.7863 8.58922 19.801 8.61224C19.8588 8.70277 20.1068 8.75033 20.2245 8.69349C20.4692 8.57534 20.4682 8.56918 19.7277 5.58273C19.3434 4.03331 19.0305 2.69698 19.0323 2.61309C19.0421 2.15874 19.7069 1.76971 20.0619 2.01056C20.1218 2.0512 20.2014 2.14183 20.2389 2.21189C20.3168 2.3578 22.1266 9.46665 22.1266 9.62673C22.1266 9.76851 22.0525 9.86364 21.4023 10.5558C20.5411 11.4727 20.1666 12.0312 19.9955 12.6538C19.8585 13.152 19.9342 13.8714 20.1435 14.0619C20.2926 14.1975 20.4967 14.1751 20.6239 14.0093C20.7119 13.8947 20.7149 13.862 20.6592 13.6369C20.4655 12.8551 20.8027 12.1358 21.8938 11.0029C22.8761 9.98287 22.9673 9.74667 22.7876 8.68719C22.6659 7.96983 22.7101 7.57204 22.9656 7.08623C23.0647 6.89774 23.3826 6.53174 23.4473 6.53174C23.5597 6.53174 23.8563 7.5177 24.1383 8.82931C24.3084 9.62024 24.3683 10.5474 24.2837 11.0795C24.1687 11.8026 23.9892 12.1664 23.1854 13.3047C22.4396 14.3608 22.194 15.1222 22.1416 16.54C22.1136 17.2979 22.1076 17.3353 22.0094 17.355C21.9528 17.3663 20.663 17.4836 19.1432 17.6157C17.6234 17.7478 16.3275 17.8607 16.2633 17.8666C16.1607 17.8762 16.1388 17.8471 16.0792 17.6222C15.9622 17.1801 15.735 16.8391 15.2311 16.349C14.8414 15.9699 14.7208 15.8162 14.5533 15.4851C14.2669 14.9191 14.1473 14.4358 14.1429 13.8271C14.1383 13.1954 14.2005 12.8824 14.5046 12.008C14.9011 10.868 14.9207 11.078 14.1364 8.0632C13.7698 6.65396 13.4699 5.41844 13.47 5.31758C13.4704 4.97243 13.7607 4.68421 14.108 4.68421C14.313 4.68421 14.5704 4.80705 14.6681 4.95149C14.7117 5.01582 15.0189 6.16261 15.3509 7.49989C15.6829 8.83717 15.9793 9.97624 16.0096 10.0311C16.0803 10.1589 16.2652 10.2039 16.412 10.129C16.559 10.054 16.5983 9.99457 16.5992 9.84606C16.5996 9.77998 16.2258 8.21706 15.7685 6.3729C15.3112 4.52874 14.9371 2.93318 14.9371 2.82726C14.9371 2.28513 15.5854 1.998 16.0164 2.34927C16.1953 2.49504 16.1656 2.39276 16.9423 5.53692C17.6953 8.58486 17.6995 8.59964 17.8205 8.66236C18.051 8.78189 18.3118 8.63574 18.3118 8.38699C18.3118 8.31304 17.9258 6.69825 17.4541 4.79852C16.8885 2.52062 16.6056 1.29689 16.6233 1.2048C16.6606 1.01185 16.7727 0.859168 16.9572 0.750212C17.151 0.635807 17.3561 0.632586 17.5747 0.740548ZM5.61293 18.2518C8.71764 18.5297 9.53402 18.6164 9.59398 18.6745C9.66109 18.7394 9.66241 18.83 9.60601 19.4887C9.52991 20.3773 9.52326 20.3886 9.09546 20.3469C8.78342 20.3165 4.12299 19.8999 2.42288 19.7505C1.69185 19.6862 1.4069 19.6437 1.35247 19.5911C1.28732 19.528 1.28571 19.4341 1.33922 18.8168C1.40148 18.0978 1.46261 17.9006 1.62288 17.9017C1.66935 17.902 3.46487 18.0596 5.61293 18.2518ZM23.5141 18.0077C23.5562 18.0727 23.607 18.3887 23.6441 18.8168C23.6975 19.4327 23.6959 19.5281 23.6312 19.5907C23.5734 19.6467 22.7063 19.7381 19.6263 20.0127C17.4642 20.2055 15.6692 20.3636 15.6375 20.3639C15.4836 20.3655 15.4398 20.2181 15.3773 19.4887C15.3213 18.8343 15.3226 18.7392 15.3882 18.6756C15.4459 18.6197 16.0439 18.5515 18.0731 18.3694C19.509 18.2406 21.223 18.0851 21.8821 18.0239C23.4591 17.8774 23.4297 17.8777 23.5141 18.0077Z" fill="#EFA220"/>
</svg>
