<svg width="34" height="28" viewBox="0 0 34 28" fill="none" xmlns="http://www.w3.org/2000/svg">
<path d="M16.8351 8.29911L17.8152 7.31969C18.3302 6.80734 19.0972 6.74217 19.5297 7.17576C19.9622 7.60845 19.8888 8.36791 19.3738 8.88025L14.0742 14.1712" stroke="#2E2E2E" stroke-miterlimit="10"/>
<path d="M13.4658 8.53478L15.4107 6.59312C15.9256 6.08078 16.6927 6.0156 17.1252 6.4492C17.5577 6.88188 17.4906 7.64859 16.9765 8.16093L12.5156 12.6145" stroke="#2E2E2E" stroke-miterlimit="10"/>
<path d="M3.38281 18.2193C6.03667 15.5698 4.93505 14.2057 8.68236 10.4654C8.70231 10.4455 12.2583 6.89527 12.2583 6.89527C12.7262 6.43 13.4234 6.37116 13.816 6.76402C14.2086 7.15688 14.1478 7.85298 13.6809 8.31915L10.9472 11.0483" stroke="#2E2E2E" stroke-miterlimit="10"/>
<path d="M18.1216 10.134C18.6366 9.62166 19.4109 9.56372 19.8434 9.99641C20.2758 10.4291 20.2024 11.1886 19.6874 11.7009L14.3942 16.9855C14.95 16.7338 15.4179 16.5302 16.3808 16.111C18.2431 15.2991 19.6947 15.3615 19.9349 16.0305C20.2641 16.9493 18.6248 17.601 17.1551 18.3306C15.4922 19.1561 15.28 19.6459 11.9643 20.4252C10.3785 20.7982 8.84443 20.4216 7.21875 22.0446" stroke="#2E2E2E" stroke-miterlimit="10"/>
<path d="M2.8086 17.6436L1 19.4492L5.87379 24.3151L7.68239 22.5094L2.8086 17.6436Z" stroke="#2E2E2E" stroke-miterlimit="10"/>
<path d="M20.043 11.3438L22.4031 13.6946" stroke="#2E2E2E" stroke-miterlimit="10"/>
<path d="M18.4844 12.9004L20.8417 15.2539" stroke="#2E2E2E" stroke-miterlimit="10"/>
<path d="M26.4566 24.3696C23.8028 21.7201 21.848 21.9599 18.1016 18.2188" stroke="#2E2E2E" stroke-miterlimit="10"/>
<path d="M19.6406 7.80469L25.1786 13.3346" stroke="#2E2E2E" stroke-miterlimit="10"/>
<path d="M27.6916 26.7504L32.566 21.884L30.7571 20.0781L25.8828 24.9445L27.6916 26.7504Z" stroke="#2E2E2E" stroke-miterlimit="10"/>
<path d="M24.9722 15.0753C24.9722 15.0753 24.8362 14.2696 25.1463 13.5382C25.1916 13.4314 25.1916 13.311 25.1445 13.206C24.9251 12.7199 24.722 12.2556 24.3466 11.3956C23.5333 9.53634 23.5959 8.08711 24.2659 7.84723C25.1862 7.51865 25.839 9.15525 26.5698 10.6226C27.3967 12.2827 27.8872 12.4945 28.6679 15.8049C29.0414 17.3881 28.6642 18.9197 30.2899 20.5427" stroke="#2E2E2E" stroke-miterlimit="10"/>
<path d="M19.7266 5.10036L21.656 3.79688" stroke="#2E2E2E" stroke-miterlimit="10"/>
<path d="M17.918 3.941L18.4846 1" stroke="#2E2E2E" stroke-miterlimit="10"/>
<path d="M15.8072 4.34628L14.5352 2.4707" stroke="#2E2E2E" stroke-miterlimit="10"/>
</svg>
