<svg width="12" height="17" viewBox="0 0 12 17" fill="none" xmlns="http://www.w3.org/2000/svg">
<mask id="path-1-inside-1_472_44" fill="white">
<path fill-rule="evenodd" clip-rule="evenodd" d="M4.77696 0.0380845C4.53823 0.131821 4.36782 0.339523 4.31218 0.60469C4.25731 0.866136 4.28716 1.83409 4.35523 1.99961C4.38455 2.07089 4.40486 2.13294 4.40034 2.13746C4.39582 2.14198 4.16083 2.01316 3.87811 1.85117C3.30894 1.52512 3.20781 1.49785 3.10155 1.6419C2.97668 1.81114 3.03373 1.94853 3.28582 2.08564L3.41265 2.15463L3.29492 2.32925C3.23015 2.42528 3.14849 2.54546 3.11348 2.59634L3.04983 2.68882L1.7739 1.75391C1.07217 1.23972 0.486885 0.797843 0.473302 0.771934C0.437662 0.70404 0.504611 0.591104 0.580501 0.591104C0.616141 0.591104 1.01871 0.802659 1.47508 1.06125C1.96877 1.34096 2.34025 1.53156 2.39227 1.53183C2.56337 1.53262 2.68001 1.28094 2.5725 1.14283C2.55122 1.11549 2.14582 0.872115 1.67163 0.601999L0.80948 0.110895L0.588975 0.110197C0.394607 0.109566 0.354856 0.120561 0.25345 0.203037C0.109521 0.320058 0.0477741 0.419442 0.0112621 0.592699C-0.0218231 0.749646 0.0197982 0.956518 0.112356 1.0951C0.145223 1.14429 0.970763 1.76959 1.94693 2.48467C3.47645 3.60513 3.72515 3.79871 3.74611 3.88504C3.76029 3.94337 3.72259 4.75116 3.65586 5.8185L3.54125 7.65175L2.80175 11.6034L2.06226 15.5551L1.55271 16.1054C0.997586 16.7048 0.969205 16.7581 1.11961 16.9185L1.19607 17H2.14909H3.10211L3.17856 16.9185C3.25361 16.8385 3.25504 16.8265 3.25504 16.2876V15.7382L4.08388 13.3049C4.53975 11.9666 4.92223 10.8606 4.93385 10.8472C4.94547 10.8338 5.13653 11.8801 5.35844 13.1724L5.76188 15.5219L5.77795 16.1975C5.79369 16.8577 5.79574 16.8746 5.86761 16.9366C5.93637 16.9959 6.00248 17 6.88369 17C7.79004 17 7.82936 16.9973 7.9083 16.9311C7.96584 16.8829 7.99039 16.8311 7.99039 16.7581C7.99039 16.6678 7.92335 16.5818 7.49193 16.1188L6.99348 15.5838V12.5218C6.99348 9.50416 6.99257 9.45892 6.93117 9.39345C6.83839 9.29453 6.67166 9.30486 6.59075 9.41454C6.52651 9.5016 6.52617 9.51771 6.52617 12.4704V15.4388H6.37262H6.21906L6.18619 15.2644C6.16205 15.1363 5.52296 11.3883 5.25937 9.82901C5.2489 9.76713 5.21423 9.68867 5.1823 9.65463C5.10613 9.57341 4.93204 9.57365 4.86294 9.65506C4.83388 9.68931 4.3723 11.001 3.83727 12.5698L2.86444 15.4222L2.71705 15.4324C2.63599 15.4379 2.56966 15.4303 2.56966 15.4153C2.56966 15.3876 3.92528 8.14268 3.95593 8.00666L3.97276 7.93193H5.24946H6.52617V8.243C6.52617 8.5074 6.53586 8.56722 6.59075 8.64159C6.67166 8.75127 6.83839 8.7616 6.93117 8.66269C6.99207 8.59775 6.99348 8.55198 6.99348 6.63865C6.99348 5.47494 7.00553 4.64719 7.02323 4.59757C7.03961 4.55166 7.08516 4.49257 7.12448 4.46626C7.16769 4.43733 8.04021 4.2848 9.33 4.08068C10.5037 3.89494 11.5235 3.72019 11.5961 3.69235C11.8451 3.59699 12.0445 3.2325 11.9914 2.9698C11.9377 2.70466 11.7745 2.5045 11.5451 2.42259C11.4694 2.39562 10.7337 2.38479 8.97276 2.38479H6.50639L6.61755 2.14606L6.72867 1.90737V1.32396C6.72867 0.755857 6.72649 0.736226 6.64568 0.574496C6.53901 0.361014 6.36439 0.182543 6.1679 0.086215C6.02628 0.0167596 5.9612 0.00908658 5.45137 0.00164611C5.04276 -0.00433284 4.85976 0.00556564 4.77696 0.0380845ZM6.07251 0.603793C6.23214 0.733735 6.28165 0.874108 6.27046 1.16505L6.26137 1.40225L6.09778 1.18C5.85198 0.846173 5.77051 0.810963 5.20993 0.796315C4.69767 0.782929 4.67262 0.768579 4.84356 0.586321L4.93674 0.486971L5.44583 0.497534C5.9522 0.507997 5.95553 0.508561 6.07251 0.603793ZM5.61381 1.34678C5.64695 1.37873 5.72839 1.47831 5.79478 1.56803C5.86117 1.65772 5.97578 1.77643 6.04946 1.83184C6.12317 1.88724 6.18348 1.94899 6.18348 1.96905C6.18348 2.04053 5.91643 2.28325 5.78235 2.3336C5.41417 2.47188 5.01478 2.30424 4.83587 1.93637C4.79297 1.84818 4.7664 1.71691 4.75683 1.54608L4.74241 1.28865H5.14797C5.49047 1.28865 5.56287 1.29768 5.61381 1.34678ZM4.61801 2.79853L4.78157 2.85517V3.04649C4.78157 3.44283 4.91855 3.71431 5.1918 3.8595C5.48707 4.01634 5.79637 3.96154 6.03292 3.71039C6.19843 3.53467 6.24535 3.39792 6.2456 3.09064L6.24579 2.88303H6.82213H7.39847V3.37773C7.39847 3.90982 7.39754 3.91274 7.2285 3.91274C7.00547 3.91274 6.73845 4.10606 6.6091 4.36116C6.5434 4.49077 6.54153 4.52997 6.53246 5.96385L6.52315 7.43368H5.27853H4.03388L4.03541 7.29251C4.03625 7.21485 4.08264 6.43387 4.13846 5.55695C4.20457 4.51937 4.23118 3.91035 4.2147 3.81309C4.17678 3.58922 4.04684 3.42044 3.73686 3.19245C3.58324 3.07944 3.46069 2.97215 3.46455 2.95408C3.46841 2.93598 3.55178 2.80089 3.64982 2.65391L3.82805 2.38665L4.14127 2.56426C4.31352 2.66195 4.52807 2.76738 4.61801 2.79853ZM5.77848 3.08383C5.77848 3.32976 5.694 3.44771 5.51785 3.44771C5.35336 3.44771 5.24887 3.29834 5.24887 3.06317V2.88303H5.51368H5.77848V3.08383ZM11.4549 2.92456C11.5406 2.99637 11.5518 3.10502 11.4812 3.18029C11.446 3.21776 11.3998 3.24901 11.3783 3.24974C11.3569 3.25051 10.5684 3.37557 9.62596 3.52773C8.68356 3.67986 7.90201 3.79795 7.88914 3.79014C7.86026 3.7726 7.8578 2.93582 7.88656 2.90519C7.89796 2.893 8.69437 2.88303 9.65636 2.88303C11.0084 2.88303 11.4166 2.89247 11.4549 2.92456ZM2.78774 16.2194V16.5018H2.31333H1.83892L2.10236 16.2194L2.36579 15.9371H2.57676H2.78774V16.2194ZM6.93117 16.2194L7.1946 16.5018H6.7202H6.24579V16.2194V15.9371H6.45676H6.66773L6.93117 16.2194Z"/>
</mask>
<path fill-rule="evenodd" clip-rule="evenodd" d="M4.77696 0.0380845C4.53823 0.131821 4.36782 0.339523 4.31218 0.60469C4.25731 0.866136 4.28716 1.83409 4.35523 1.99961C4.38455 2.07089 4.40486 2.13294 4.40034 2.13746C4.39582 2.14198 4.16083 2.01316 3.87811 1.85117C3.30894 1.52512 3.20781 1.49785 3.10155 1.6419C2.97668 1.81114 3.03373 1.94853 3.28582 2.08564L3.41265 2.15463L3.29492 2.32925C3.23015 2.42528 3.14849 2.54546 3.11348 2.59634L3.04983 2.68882L1.7739 1.75391C1.07217 1.23972 0.486885 0.797843 0.473302 0.771934C0.437662 0.70404 0.504611 0.591104 0.580501 0.591104C0.616141 0.591104 1.01871 0.802659 1.47508 1.06125C1.96877 1.34096 2.34025 1.53156 2.39227 1.53183C2.56337 1.53262 2.68001 1.28094 2.5725 1.14283C2.55122 1.11549 2.14582 0.872115 1.67163 0.601999L0.80948 0.110895L0.588975 0.110197C0.394607 0.109566 0.354856 0.120561 0.25345 0.203037C0.109521 0.320058 0.0477741 0.419442 0.0112621 0.592699C-0.0218231 0.749646 0.0197982 0.956518 0.112356 1.0951C0.145223 1.14429 0.970763 1.76959 1.94693 2.48467C3.47645 3.60513 3.72515 3.79871 3.74611 3.88504C3.76029 3.94337 3.72259 4.75116 3.65586 5.8185L3.54125 7.65175L2.80175 11.6034L2.06226 15.5551L1.55271 16.1054C0.997586 16.7048 0.969205 16.7581 1.11961 16.9185L1.19607 17H2.14909H3.10211L3.17856 16.9185C3.25361 16.8385 3.25504 16.8265 3.25504 16.2876V15.7382L4.08388 13.3049C4.53975 11.9666 4.92223 10.8606 4.93385 10.8472C4.94547 10.8338 5.13653 11.8801 5.35844 13.1724L5.76188 15.5219L5.77795 16.1975C5.79369 16.8577 5.79574 16.8746 5.86761 16.9366C5.93637 16.9959 6.00248 17 6.88369 17C7.79004 17 7.82936 16.9973 7.9083 16.9311C7.96584 16.8829 7.99039 16.8311 7.99039 16.7581C7.99039 16.6678 7.92335 16.5818 7.49193 16.1188L6.99348 15.5838V12.5218C6.99348 9.50416 6.99257 9.45892 6.93117 9.39345C6.83839 9.29453 6.67166 9.30486 6.59075 9.41454C6.52651 9.5016 6.52617 9.51771 6.52617 12.4704V15.4388H6.37262H6.21906L6.18619 15.2644C6.16205 15.1363 5.52296 11.3883 5.25937 9.82901C5.2489 9.76713 5.21423 9.68867 5.1823 9.65463C5.10613 9.57341 4.93204 9.57365 4.86294 9.65506C4.83388 9.68931 4.3723 11.001 3.83727 12.5698L2.86444 15.4222L2.71705 15.4324C2.63599 15.4379 2.56966 15.4303 2.56966 15.4153C2.56966 15.3876 3.92528 8.14268 3.95593 8.00666L3.97276 7.93193H5.24946H6.52617V8.243C6.52617 8.5074 6.53586 8.56722 6.59075 8.64159C6.67166 8.75127 6.83839 8.7616 6.93117 8.66269C6.99207 8.59775 6.99348 8.55198 6.99348 6.63865C6.99348 5.47494 7.00553 4.64719 7.02323 4.59757C7.03961 4.55166 7.08516 4.49257 7.12448 4.46626C7.16769 4.43733 8.04021 4.2848 9.33 4.08068C10.5037 3.89494 11.5235 3.72019 11.5961 3.69235C11.8451 3.59699 12.0445 3.2325 11.9914 2.9698C11.9377 2.70466 11.7745 2.5045 11.5451 2.42259C11.4694 2.39562 10.7337 2.38479 8.97276 2.38479H6.50639L6.61755 2.14606L6.72867 1.90737V1.32396C6.72867 0.755857 6.72649 0.736226 6.64568 0.574496C6.53901 0.361014 6.36439 0.182543 6.1679 0.086215C6.02628 0.0167596 5.9612 0.00908658 5.45137 0.00164611C5.04276 -0.00433284 4.85976 0.00556564 4.77696 0.0380845ZM6.07251 0.603793C6.23214 0.733735 6.28165 0.874108 6.27046 1.16505L6.26137 1.40225L6.09778 1.18C5.85198 0.846173 5.77051 0.810963 5.20993 0.796315C4.69767 0.782929 4.67262 0.768579 4.84356 0.586321L4.93674 0.486971L5.44583 0.497534C5.9522 0.507997 5.95553 0.508561 6.07251 0.603793ZM5.61381 1.34678C5.64695 1.37873 5.72839 1.47831 5.79478 1.56803C5.86117 1.65772 5.97578 1.77643 6.04946 1.83184C6.12317 1.88724 6.18348 1.94899 6.18348 1.96905C6.18348 2.04053 5.91643 2.28325 5.78235 2.3336C5.41417 2.47188 5.01478 2.30424 4.83587 1.93637C4.79297 1.84818 4.7664 1.71691 4.75683 1.54608L4.74241 1.28865H5.14797C5.49047 1.28865 5.56287 1.29768 5.61381 1.34678ZM4.61801 2.79853L4.78157 2.85517V3.04649C4.78157 3.44283 4.91855 3.71431 5.1918 3.8595C5.48707 4.01634 5.79637 3.96154 6.03292 3.71039C6.19843 3.53467 6.24535 3.39792 6.2456 3.09064L6.24579 2.88303H6.82213H7.39847V3.37773C7.39847 3.90982 7.39754 3.91274 7.2285 3.91274C7.00547 3.91274 6.73845 4.10606 6.6091 4.36116C6.5434 4.49077 6.54153 4.52997 6.53246 5.96385L6.52315 7.43368H5.27853H4.03388L4.03541 7.29251C4.03625 7.21485 4.08264 6.43387 4.13846 5.55695C4.20457 4.51937 4.23118 3.91035 4.2147 3.81309C4.17678 3.58922 4.04684 3.42044 3.73686 3.19245C3.58324 3.07944 3.46069 2.97215 3.46455 2.95408C3.46841 2.93598 3.55178 2.80089 3.64982 2.65391L3.82805 2.38665L4.14127 2.56426C4.31352 2.66195 4.52807 2.76738 4.61801 2.79853ZM5.77848 3.08383C5.77848 3.32976 5.694 3.44771 5.51785 3.44771C5.35336 3.44771 5.24887 3.29834 5.24887 3.06317V2.88303H5.51368H5.77848V3.08383ZM11.4549 2.92456C11.5406 2.99637 11.5518 3.10502 11.4812 3.18029C11.446 3.21776 11.3998 3.24901 11.3783 3.24974C11.3569 3.25051 10.5684 3.37557 9.62596 3.52773C8.68356 3.67986 7.90201 3.79795 7.88914 3.79014C7.86026 3.7726 7.8578 2.93582 7.88656 2.90519C7.89796 2.893 8.69437 2.88303 9.65636 2.88303C11.0084 2.88303 11.4166 2.89247 11.4549 2.92456ZM2.78774 16.2194V16.5018H2.31333H1.83892L2.10236 16.2194L2.36579 15.9371H2.57676H2.78774V16.2194ZM6.93117 16.2194L7.1946 16.5018H6.7202H6.24579V16.2194V15.9371H6.45676H6.66773L6.93117 16.2194Z" fill="#EFA220" stroke="#EFA220" stroke-width="14" mask="url(#path-1-inside-1_472_44)"/>
</svg>
