<svg width="20" height="24" viewBox="0 0 20 24" fill="none" xmlns="http://www.w3.org/2000/svg">
<mask id="path-1-inside-1_451_491" fill="white">
<path fill-rule="evenodd" clip-rule="evenodd" d="M5.57226 0.0776255C5.25778 0.189355 4.84918 0.597625 4.74047 0.908701C4.57265 1.38911 4.60042 1.51622 5.33632 3.63258C5.71093 4.70999 6.07787 5.69953 6.15168 5.83155C6.22549 5.96357 6.85563 6.82477 7.552 7.74524C8.24837 8.66572 8.8456 9.50002 8.87918 9.5992C8.99424 9.9391 8.92267 10.1579 8.40613 11.0451C7.76627 12.1443 7.62866 12.4192 7.50164 12.8524C7.28463 13.5923 7.29928 13.8616 7.80498 18.4254C8.05898 20.7175 8.28109 22.6599 8.29864 22.7418C8.34976 22.9809 8.55798 23.3447 8.752 23.534C9.51816 24.2812 10.8475 24.1046 11.3771 23.1852C11.6602 22.6938 11.6601 22.6918 11.2675 19.775C10.5786 14.6576 10.6219 15.0487 10.7309 14.9313C10.8563 14.7962 11.0713 14.8002 11.2039 14.94C11.2621 15.0015 11.6781 15.5759 12.1284 16.2166C12.8343 17.2209 12.9472 17.4075 12.9472 17.5707C12.9472 17.6748 12.8079 18.7581 12.6377 19.978C12.4299 21.4671 12.3357 22.2942 12.3511 22.4946C12.3932 23.0441 12.7635 23.5528 13.3033 23.8029C13.6799 23.9773 14.2769 23.9828 14.6328 23.8149C15.0025 23.6405 15.2678 23.3878 15.4405 23.0457C15.5973 22.735 15.5994 22.7203 15.8782 19.9097C16.1837 16.8299 16.1854 16.7223 15.9374 16.1486C15.8771 16.0092 15.3352 15.1583 14.7331 14.2579C13.945 13.0792 13.6333 12.572 13.6201 12.447C13.6001 12.2576 14.1729 9.18781 14.296 8.82439C14.3498 8.66543 15.0908 7.69216 16.8457 5.47548C18.2063 3.75681 19.3673 2.25015 19.4257 2.12736C19.5678 1.82868 19.5668 1.34441 19.4233 1.03145C19.0539 0.225474 17.9455 -0.0364359 17.2745 0.523651C17.1621 0.61752 16.1223 1.87071 14.9638 3.30856C13.8053 4.74636 12.8066 5.96744 12.7444 6.02202C12.6387 6.11489 12.5481 6.12219 11.3306 6.13608C10.4056 6.14665 9.98735 6.1338 9.88286 6.09158C9.72216 6.02663 8.88111 4.92273 8.65809 4.484C8.58875 4.34756 8.29757 3.49917 8.01106 2.59869C7.46308 0.876651 7.39023 0.692436 7.15231 0.428145C6.813 0.0512807 6.09486 -0.108028 5.57226 0.0776255ZM6.4711 0.78561C6.56048 0.838796 6.67219 0.93966 6.7193 1.00976C6.7664 1.07992 7.05016 1.90147 7.34989 2.83544C7.64957 3.76942 7.95846 4.65641 8.03629 4.80649C8.19674 5.11583 8.91509 6.12402 9.17896 6.4101C9.2751 6.51443 9.44695 6.64839 9.56079 6.70778C9.7595 6.81152 9.82558 6.81583 11.2176 6.81583C12.7344 6.81583 12.8298 6.80442 13.1597 6.5831C13.2346 6.53284 14.2829 5.26561 15.4892 3.76708C17.4958 1.27435 17.7011 1.03551 17.9016 0.960845C18.4576 0.753758 19.006 1.27594 18.7907 1.8074C18.7524 1.90196 18.1258 2.73155 17.3984 3.65089C13.8829 8.09358 13.7593 8.25443 13.658 8.51812C13.5394 8.82677 12.8953 12.1414 12.8985 12.4264C12.8998 12.5332 12.9302 12.6988 12.9662 12.7943C13.0022 12.8898 13.5292 13.7117 14.1374 14.6209C15.2424 16.2724 15.3528 16.4671 15.4142 16.8709C15.4505 17.1104 14.9659 22.2762 14.8784 22.5814C14.8116 22.8143 14.5529 23.1072 14.3358 23.1957C14.0282 23.3211 13.5881 23.2459 13.3379 23.0252C13.1787 22.8848 13.0489 22.5853 13.0492 22.3593C13.0494 22.2422 13.1867 21.1547 13.3544 19.9426C13.5222 18.7305 13.6594 17.6414 13.6594 17.5223C13.6594 17.4033 13.6271 17.2307 13.5877 17.1387C13.5146 16.9681 11.9016 14.6518 11.7066 14.4374C11.5531 14.2687 11.229 14.1362 10.9666 14.1349C10.4926 14.1326 10.0376 14.5035 9.96929 14.9478C9.94746 15.0895 10.0966 16.3433 10.4263 18.7898C10.964 22.7801 10.9569 22.6502 10.6535 22.9873C10.3402 23.3352 9.78783 23.4038 9.38626 23.1446C8.99974 22.8951 9.02762 23.0459 8.52237 18.4727C8.26999 16.1888 8.06356 14.1366 8.06356 13.9124C8.06356 13.4424 8.19522 12.8805 8.39717 12.4889C8.47241 12.3431 8.75887 11.833 9.03377 11.3555C9.30868 10.8779 9.56069 10.3799 9.59386 10.2486C9.6661 9.96282 9.63247 9.57554 9.50952 9.27637C9.46012 9.15615 8.84107 8.29243 8.13386 7.35702C7.42666 6.42161 6.801 5.56637 6.74351 5.45647C6.53804 5.06358 5.3674 1.59625 5.3674 1.38043C5.3674 0.841674 5.99581 0.502962 6.4711 0.78561ZM10.6979 1.11202C10.0962 1.29936 9.48963 1.89988 9.31168 2.48433C9.13607 3.06094 9.24799 3.80117 9.58236 4.27513C10.3637 5.3828 11.9511 5.50366 12.8977 4.52756C13.8936 3.50051 13.5972 1.87413 12.3003 1.249C11.9477 1.07902 11.8752 1.06255 11.4267 1.05045C11.0975 1.04162 10.8594 1.06171 10.6979 1.11202ZM11.9439 1.84273C12.0903 1.90271 12.2778 2.04073 12.4148 2.18937C13.2117 3.05384 12.6452 4.40516 11.448 4.49551C10.6282 4.55738 9.93383 3.93145 9.92905 3.12628C9.92279 2.08018 10.941 1.43158 11.9439 1.84273ZM2.29515 7.45491C1.1736 7.89205 0.696892 8.10132 0.630251 8.18586C0.480944 8.37519 0.465226 8.57875 0.576836 8.87777C0.8697 9.66216 1.05838 10.1514 1.28689 10.7185L1.53998 11.3467L1.30439 11.4039C0.326093 11.6418 -0.292599 12.7284 0.140516 13.448C0.333419 13.7684 0.727923 13.9621 1.09999 13.9191C1.66217 13.8542 2.17764 13.4966 2.45087 12.982C2.55938 12.7776 2.59056 12.6487 2.59244 12.3974C2.59458 12.1093 2.55175 11.9675 2.19148 11.0692C1.94476 10.4542 1.80649 10.0462 1.83543 10.0187C1.89287 9.96431 4.36057 8.97402 4.4387 8.97402C4.48352 8.97402 4.96043 10.0695 4.96043 10.1725C4.96043 10.1886 4.87462 10.2153 4.76967 10.2319C4.14589 10.3306 3.5158 10.9967 3.44901 11.628C3.41518 11.9474 3.49586 12.2004 3.70596 12.4338C3.9042 12.654 4.12066 12.7446 4.44816 12.7446C5.25915 12.7446 6.04154 11.9922 6.03737 11.2162C6.0361 10.9722 5.93456 10.6804 5.29181 9.07325C4.88255 8.04997 4.51287 7.16065 4.47034 7.09694C4.39007 6.97688 4.11521 6.84 3.95736 6.84148C3.90751 6.84198 3.1595 7.11798 2.29515 7.45491ZM4.08607 7.94558C4.15545 8.13034 4.20317 8.28965 4.19208 8.29968C4.17636 8.31386 1.85125 9.25057 1.57686 9.35322C1.53626 9.36845 1.4625 9.23985 1.37012 8.99273C1.29106 8.78142 1.24818 8.60083 1.27479 8.59135C1.30139 8.58188 1.88402 8.35361 2.5695 8.08405C3.25499 7.8145 3.84824 7.5975 3.88787 7.60181C3.9275 7.60613 4.01668 7.76082 4.08607 7.94558ZM16.5313 7.95471C16.4626 8.02169 16.4064 8.11085 16.4064 8.15282C16.4064 8.19484 16.7298 9.01634 17.1252 9.9784C17.5205 10.9405 17.8543 11.7635 17.8668 11.8074C17.8834 11.865 17.8441 11.8962 17.7254 11.9193C16.9172 12.077 16.2577 13.0141 16.4542 13.7257C16.7388 14.7565 18.2974 14.6124 18.8572 13.5035C19.0913 13.0396 19.0879 12.7454 18.8424 12.2485C18.5844 11.726 17.2955 8.58649 17.3266 8.55613C17.3407 8.54238 17.4656 8.56044 17.6043 8.59626C18.3587 8.79125 18.9791 9.32692 19.2564 10.0227C19.3147 10.169 19.3999 10.3167 19.4457 10.3508C19.5777 10.4491 19.7576 10.4234 19.8982 10.2863C20.0574 10.131 20.0433 10.0491 19.7594 9.48117C19.2714 8.50517 18.1486 7.83291 17.0064 7.83291C16.7023 7.83291 16.6396 7.84899 16.5313 7.95471ZM5.30183 11.0613C5.42519 11.3135 5.16199 11.797 4.80279 11.9782C4.62998 12.0653 4.29143 12.0723 4.20755 11.9905C4.0646 11.8511 4.19737 11.3565 4.43372 11.148C4.61268 10.9902 4.8329 10.907 5.03639 10.9204C5.19734 10.931 5.25238 10.9602 5.30183 11.0613ZM1.80644 12.1493C2.04802 12.3849 1.7985 12.916 1.33792 13.1464C1.09241 13.2692 0.916501 13.2659 0.783271 13.136C0.56127 12.9194 0.821627 12.3709 1.24559 12.1617C1.52487 12.0239 1.67453 12.0206 1.80644 12.1493ZM18.2168 12.6614C18.3336 12.7594 18.3493 12.8022 18.3213 12.9467C18.2478 13.3261 17.8898 13.6757 17.5263 13.7233C17.1418 13.7736 17.0188 13.5227 17.2247 13.108C17.3396 12.8764 17.5354 12.7156 17.8249 12.6147C18.0678 12.53 18.0589 12.5289 18.2168 12.6614Z"/>
</mask>
<path fill-rule="evenodd" clip-rule="evenodd" d="M5.57226 0.0776255C5.25778 0.189355 4.84918 0.597625 4.74047 0.908701C4.57265 1.38911 4.60042 1.51622 5.33632 3.63258C5.71093 4.70999 6.07787 5.69953 6.15168 5.83155C6.22549 5.96357 6.85563 6.82477 7.552 7.74524C8.24837 8.66572 8.8456 9.50002 8.87918 9.5992C8.99424 9.9391 8.92267 10.1579 8.40613 11.0451C7.76627 12.1443 7.62866 12.4192 7.50164 12.8524C7.28463 13.5923 7.29928 13.8616 7.80498 18.4254C8.05898 20.7175 8.28109 22.6599 8.29864 22.7418C8.34976 22.9809 8.55798 23.3447 8.752 23.534C9.51816 24.2812 10.8475 24.1046 11.3771 23.1852C11.6602 22.6938 11.6601 22.6918 11.2675 19.775C10.5786 14.6576 10.6219 15.0487 10.7309 14.9313C10.8563 14.7962 11.0713 14.8002 11.2039 14.94C11.2621 15.0015 11.6781 15.5759 12.1284 16.2166C12.8343 17.2209 12.9472 17.4075 12.9472 17.5707C12.9472 17.6748 12.8079 18.7581 12.6377 19.978C12.4299 21.4671 12.3357 22.2942 12.3511 22.4946C12.3932 23.0441 12.7635 23.5528 13.3033 23.8029C13.6799 23.9773 14.2769 23.9828 14.6328 23.8149C15.0025 23.6405 15.2678 23.3878 15.4405 23.0457C15.5973 22.735 15.5994 22.7203 15.8782 19.9097C16.1837 16.8299 16.1854 16.7223 15.9374 16.1486C15.8771 16.0092 15.3352 15.1583 14.7331 14.2579C13.945 13.0792 13.6333 12.572 13.6201 12.447C13.6001 12.2576 14.1729 9.18781 14.296 8.82439C14.3498 8.66543 15.0908 7.69216 16.8457 5.47548C18.2063 3.75681 19.3673 2.25015 19.4257 2.12736C19.5678 1.82868 19.5668 1.34441 19.4233 1.03145C19.0539 0.225474 17.9455 -0.0364359 17.2745 0.523651C17.1621 0.61752 16.1223 1.87071 14.9638 3.30856C13.8053 4.74636 12.8066 5.96744 12.7444 6.02202C12.6387 6.11489 12.5481 6.12219 11.3306 6.13608C10.4056 6.14665 9.98735 6.1338 9.88286 6.09158C9.72216 6.02663 8.88111 4.92273 8.65809 4.484C8.58875 4.34756 8.29757 3.49917 8.01106 2.59869C7.46308 0.876651 7.39023 0.692436 7.15231 0.428145C6.813 0.0512807 6.09486 -0.108028 5.57226 0.0776255ZM6.4711 0.78561C6.56048 0.838796 6.67219 0.93966 6.7193 1.00976C6.7664 1.07992 7.05016 1.90147 7.34989 2.83544C7.64957 3.76942 7.95846 4.65641 8.03629 4.80649C8.19674 5.11583 8.91509 6.12402 9.17896 6.4101C9.2751 6.51443 9.44695 6.64839 9.56079 6.70778C9.7595 6.81152 9.82558 6.81583 11.2176 6.81583C12.7344 6.81583 12.8298 6.80442 13.1597 6.5831C13.2346 6.53284 14.2829 5.26561 15.4892 3.76708C17.4958 1.27435 17.7011 1.03551 17.9016 0.960845C18.4576 0.753758 19.006 1.27594 18.7907 1.8074C18.7524 1.90196 18.1258 2.73155 17.3984 3.65089C13.8829 8.09358 13.7593 8.25443 13.658 8.51812C13.5394 8.82677 12.8953 12.1414 12.8985 12.4264C12.8998 12.5332 12.9302 12.6988 12.9662 12.7943C13.0022 12.8898 13.5292 13.7117 14.1374 14.6209C15.2424 16.2724 15.3528 16.4671 15.4142 16.8709C15.4505 17.1104 14.9659 22.2762 14.8784 22.5814C14.8116 22.8143 14.5529 23.1072 14.3358 23.1957C14.0282 23.3211 13.5881 23.2459 13.3379 23.0252C13.1787 22.8848 13.0489 22.5853 13.0492 22.3593C13.0494 22.2422 13.1867 21.1547 13.3544 19.9426C13.5222 18.7305 13.6594 17.6414 13.6594 17.5223C13.6594 17.4033 13.6271 17.2307 13.5877 17.1387C13.5146 16.9681 11.9016 14.6518 11.7066 14.4374C11.5531 14.2687 11.229 14.1362 10.9666 14.1349C10.4926 14.1326 10.0376 14.5035 9.96929 14.9478C9.94746 15.0895 10.0966 16.3433 10.4263 18.7898C10.964 22.7801 10.9569 22.6502 10.6535 22.9873C10.3402 23.3352 9.78783 23.4038 9.38626 23.1446C8.99974 22.8951 9.02762 23.0459 8.52237 18.4727C8.26999 16.1888 8.06356 14.1366 8.06356 13.9124C8.06356 13.4424 8.19522 12.8805 8.39717 12.4889C8.47241 12.3431 8.75887 11.833 9.03377 11.3555C9.30868 10.8779 9.56069 10.3799 9.59386 10.2486C9.6661 9.96282 9.63247 9.57554 9.50952 9.27637C9.46012 9.15615 8.84107 8.29243 8.13386 7.35702C7.42666 6.42161 6.801 5.56637 6.74351 5.45647C6.53804 5.06358 5.3674 1.59625 5.3674 1.38043C5.3674 0.841674 5.99581 0.502962 6.4711 0.78561ZM10.6979 1.11202C10.0962 1.29936 9.48963 1.89988 9.31168 2.48433C9.13607 3.06094 9.24799 3.80117 9.58236 4.27513C10.3637 5.3828 11.9511 5.50366 12.8977 4.52756C13.8936 3.50051 13.5972 1.87413 12.3003 1.249C11.9477 1.07902 11.8752 1.06255 11.4267 1.05045C11.0975 1.04162 10.8594 1.06171 10.6979 1.11202ZM11.9439 1.84273C12.0903 1.90271 12.2778 2.04073 12.4148 2.18937C13.2117 3.05384 12.6452 4.40516 11.448 4.49551C10.6282 4.55738 9.93383 3.93145 9.92905 3.12628C9.92279 2.08018 10.941 1.43158 11.9439 1.84273ZM2.29515 7.45491C1.1736 7.89205 0.696892 8.10132 0.630251 8.18586C0.480944 8.37519 0.465226 8.57875 0.576836 8.87777C0.8697 9.66216 1.05838 10.1514 1.28689 10.7185L1.53998 11.3467L1.30439 11.4039C0.326093 11.6418 -0.292599 12.7284 0.140516 13.448C0.333419 13.7684 0.727923 13.9621 1.09999 13.9191C1.66217 13.8542 2.17764 13.4966 2.45087 12.982C2.55938 12.7776 2.59056 12.6487 2.59244 12.3974C2.59458 12.1093 2.55175 11.9675 2.19148 11.0692C1.94476 10.4542 1.80649 10.0462 1.83543 10.0187C1.89287 9.96431 4.36057 8.97402 4.4387 8.97402C4.48352 8.97402 4.96043 10.0695 4.96043 10.1725C4.96043 10.1886 4.87462 10.2153 4.76967 10.2319C4.14589 10.3306 3.5158 10.9967 3.44901 11.628C3.41518 11.9474 3.49586 12.2004 3.70596 12.4338C3.9042 12.654 4.12066 12.7446 4.44816 12.7446C5.25915 12.7446 6.04154 11.9922 6.03737 11.2162C6.0361 10.9722 5.93456 10.6804 5.29181 9.07325C4.88255 8.04997 4.51287 7.16065 4.47034 7.09694C4.39007 6.97688 4.11521 6.84 3.95736 6.84148C3.90751 6.84198 3.1595 7.11798 2.29515 7.45491ZM4.08607 7.94558C4.15545 8.13034 4.20317 8.28965 4.19208 8.29968C4.17636 8.31386 1.85125 9.25057 1.57686 9.35322C1.53626 9.36845 1.4625 9.23985 1.37012 8.99273C1.29106 8.78142 1.24818 8.60083 1.27479 8.59135C1.30139 8.58188 1.88402 8.35361 2.5695 8.08405C3.25499 7.8145 3.84824 7.5975 3.88787 7.60181C3.9275 7.60613 4.01668 7.76082 4.08607 7.94558ZM16.5313 7.95471C16.4626 8.02169 16.4064 8.11085 16.4064 8.15282C16.4064 8.19484 16.7298 9.01634 17.1252 9.9784C17.5205 10.9405 17.8543 11.7635 17.8668 11.8074C17.8834 11.865 17.8441 11.8962 17.7254 11.9193C16.9172 12.077 16.2577 13.0141 16.4542 13.7257C16.7388 14.7565 18.2974 14.6124 18.8572 13.5035C19.0913 13.0396 19.0879 12.7454 18.8424 12.2485C18.5844 11.726 17.2955 8.58649 17.3266 8.55613C17.3407 8.54238 17.4656 8.56044 17.6043 8.59626C18.3587 8.79125 18.9791 9.32692 19.2564 10.0227C19.3147 10.169 19.3999 10.3167 19.4457 10.3508C19.5777 10.4491 19.7576 10.4234 19.8982 10.2863C20.0574 10.131 20.0433 10.0491 19.7594 9.48117C19.2714 8.50517 18.1486 7.83291 17.0064 7.83291C16.7023 7.83291 16.6396 7.84899 16.5313 7.95471ZM5.30183 11.0613C5.42519 11.3135 5.16199 11.797 4.80279 11.9782C4.62998 12.0653 4.29143 12.0723 4.20755 11.9905C4.0646 11.8511 4.19737 11.3565 4.43372 11.148C4.61268 10.9902 4.8329 10.907 5.03639 10.9204C5.19734 10.931 5.25238 10.9602 5.30183 11.0613ZM1.80644 12.1493C2.04802 12.3849 1.7985 12.916 1.33792 13.1464C1.09241 13.2692 0.916501 13.2659 0.783271 13.136C0.56127 12.9194 0.821627 12.3709 1.24559 12.1617C1.52487 12.0239 1.67453 12.0206 1.80644 12.1493ZM18.2168 12.6614C18.3336 12.7594 18.3493 12.8022 18.3213 12.9467C18.2478 13.3261 17.8898 13.6757 17.5263 13.7233C17.1418 13.7736 17.0188 13.5227 17.2247 13.108C17.3396 12.8764 17.5354 12.7156 17.8249 12.6147C18.0678 12.53 18.0589 12.5289 18.2168 12.6614Z" fill="white" stroke="#EFA220" stroke-width="4" mask="url(#path-1-inside-1_451_491)"/>
</svg>
