<svg width="18" height="19" viewBox="0 0 18 19" fill="none" xmlns="http://www.w3.org/2000/svg">
<path d="M15.75 2.03711C16.0484 2.03711 16.3345 2.15564 16.5455 2.36661C16.7565 2.57759 16.875 2.86374 16.875 3.16211V12.1621C16.875 12.4605 16.7565 12.7466 16.5455 12.9576C16.3345 13.1686 16.0484 13.2871 15.75 13.2871H4.96575C4.36906 13.2872 3.79686 13.5244 3.375 13.9464L1.125 16.1964V3.16211C1.125 2.86374 1.24353 2.57759 1.4545 2.36661C1.66548 2.15564 1.95163 2.03711 2.25 2.03711H15.75ZM2.25 0.912109C1.65326 0.912109 1.08097 1.14916 0.65901 1.57112C0.237053 1.99308 0 2.56537 0 3.16211L0 17.5542C2.36417e-05 17.6655 0.0330667 17.7743 0.0949469 17.8668C0.156827 17.9594 0.244763 18.0314 0.347624 18.074C0.450486 18.1165 0.563649 18.1275 0.672791 18.1057C0.781932 18.0839 0.882147 18.0302 0.96075 17.9514L4.17037 14.7417C4.3813 14.5307 4.66741 14.4122 4.96575 14.4121H15.75C16.3467 14.4121 16.919 14.1751 17.341 13.7531C17.7629 13.3311 18 12.7588 18 12.1621V3.16211C18 2.56537 17.7629 1.99308 17.341 1.57112C16.919 1.14916 16.3467 0.912109 15.75 0.912109L2.25 0.912109Z" fill="#EFA220"/>
<path d="M5.625 7.66211C5.625 7.96048 5.50647 8.24663 5.2955 8.4576C5.08452 8.66858 4.79837 8.78711 4.5 8.78711C4.20163 8.78711 3.91548 8.66858 3.7045 8.4576C3.49353 8.24663 3.375 7.96048 3.375 7.66211C3.375 7.36374 3.49353 7.07759 3.7045 6.86661C3.91548 6.65564 4.20163 6.53711 4.5 6.53711C4.79837 6.53711 5.08452 6.65564 5.2955 6.86661C5.50647 7.07759 5.625 7.36374 5.625 7.66211ZM10.125 7.66211C10.125 7.96048 10.0065 8.24663 9.7955 8.4576C9.58452 8.66858 9.29837 8.78711 9 8.78711C8.70163 8.78711 8.41548 8.66858 8.20451 8.4576C7.99353 8.24663 7.875 7.96048 7.875 7.66211C7.875 7.36374 7.99353 7.07759 8.20451 6.86661C8.41548 6.65564 8.70163 6.53711 9 6.53711C9.29837 6.53711 9.58452 6.65564 9.7955 6.86661C10.0065 7.07759 10.125 7.36374 10.125 7.66211ZM14.625 7.66211C14.625 7.96048 14.5065 8.24663 14.2955 8.4576C14.0845 8.66858 13.7984 8.78711 13.5 8.78711C13.2016 8.78711 12.9155 8.66858 12.7045 8.4576C12.4935 8.24663 12.375 7.96048 12.375 7.66211C12.375 7.36374 12.4935 7.07759 12.7045 6.86661C12.9155 6.65564 13.2016 6.53711 13.5 6.53711C13.7984 6.53711 14.0845 6.65564 14.2955 6.86661C14.5065 7.07759 14.625 7.36374 14.625 7.66211Z" fill="#EFA220"/>
</svg>
