<svg width="29" height="23" viewBox="0 0 29 23" fill="none" xmlns="http://www.w3.org/2000/svg">
<path d="M13.6695 14.417C12.7189 15.3976 11.7155 16.4277 10.7167 17.4503C6.75323 13.3935 2.72579 9.20695 2.20325 8.5417L2.15971 8.47265C1.70573 7.71037 1.46484 6.83425 1.46484 5.93667C1.46484 3.21502 3.66432 1 6.36781 1C7.5463 1 8.68681 1.42919 9.57902 2.20921L10.7177 3.20475L11.8572 2.20921C12.7485 1.42919 13.889 1 15.0684 1C17.7719 1 19.9714 3.21502 19.9714 5.93667C19.9714 6.83425 19.7305 7.71223 19.2747 8.47545L19.233 8.5417C19.1589 8.63593 19.0153 8.80015 18.8124 9.02314" stroke="black" stroke-miterlimit="10"/>
<path d="M24.2438 8.71094C26.4216 8.71094 28.1932 10.5105 28.1932 12.7226C28.1932 13.4515 27.9993 14.1646 27.6318 14.7853L27.5978 14.8394C27.1742 15.3836 23.9305 18.7829 20.7392 22.0768C17.546 18.7811 14.3005 15.3799 13.8806 14.8385L13.8457 14.7825C13.479 14.1628 13.2852 13.4506 13.2852 12.7226C13.2852 10.5105 15.0568 8.71094 17.2345 8.71094C18.1838 8.71094 19.1027 9.06002 19.8212 9.69378L20.7392 10.503L21.6572 9.69378C22.3748 9.06002 23.2937 8.71094 24.2429 8.71094" stroke="black" stroke-miterlimit="10"/>
</svg>
