<svg width="21" height="21" viewBox="0 0 21 21" fill="none" xmlns="http://www.w3.org/2000/svg">
<path d="M7.0875 9.45C7.4356 9.45 7.76944 9.31172 8.01558 9.06558C8.26172 8.81944 8.4 8.4856 8.4 8.1375C8.4 7.7894 8.26172 7.45556 8.01558 7.20942C7.76944 6.96328 7.4356 6.825 7.0875 6.825C6.7394 6.825 6.40556 6.96328 6.15942 7.20942C5.91328 7.45556 5.775 7.7894 5.775 8.1375C5.775 8.4856 5.91328 8.81944 6.15942 9.06558C6.40556 9.31172 6.7394 9.45 7.0875 9.45ZM15.225 8.1375C15.225 8.4856 15.0867 8.81944 14.8406 9.06558C14.5944 9.31172 14.2606 9.45 13.9125 9.45C13.5644 9.45 13.2306 9.31172 12.9844 9.06558C12.7383 8.81944 12.6 8.4856 12.6 8.1375C12.6 7.7894 12.7383 7.45556 12.9844 7.20942C13.2306 6.96328 13.5644 6.825 13.9125 6.825C14.2606 6.825 14.5944 6.96328 14.8406 7.20942C15.0867 7.45556 15.225 7.7894 15.225 8.1375ZM7.5873 16.1075C8.48636 16.5747 9.48689 16.8125 10.5 16.8C11.513 16.8125 12.5135 16.5747 13.4125 16.1076C14.3115 15.6405 15.0813 14.9586 15.6534 14.1225C15.7444 13.9742 15.7727 13.7958 15.7322 13.6267C15.6917 13.4575 15.5857 13.3113 15.4374 13.2203C15.2891 13.1293 15.1107 13.1009 14.9415 13.1415C14.7723 13.182 14.6261 13.288 14.5351 13.4363C14.0809 14.0814 13.4757 14.6056 12.7724 14.9631C12.069 15.3207 11.2889 15.5007 10.5 15.4875C9.71109 15.5004 8.93098 15.3203 8.2276 14.9628C7.52422 14.6053 6.91889 14.0812 6.46432 13.4363C6.37333 13.288 6.22716 13.182 6.05796 13.1415C5.88876 13.1009 5.7104 13.1293 5.56211 13.2203C5.41382 13.3113 5.30775 13.4575 5.26724 13.6267C5.22672 13.7958 5.25508 13.9742 5.34607 14.1225C5.91829 14.9586 6.68816 15.6405 7.5873 16.1075ZM10.5 0C4.70085 0 0 4.70085 0 10.5C0 16.2991 4.70085 21 10.5 21C16.2991 21 21 16.2991 21 10.5C21 4.70085 16.2991 0 10.5 0ZM1.3125 10.5C1.3125 5.42587 5.42587 1.3125 10.5 1.3125C15.5741 1.3125 19.6875 5.42587 19.6875 10.5C19.6875 15.5741 15.5741 19.6875 10.5 19.6875C5.42587 19.6875 1.3125 15.5741 1.3125 10.5Z" fill="#EFA220"/>
</svg>
