<svg width="14" height="14" viewBox="0 0 14 14" fill="none" xmlns="http://www.w3.org/2000/svg">
<path d="M7 13.125C5.37555 13.125 3.81763 12.4797 2.66897 11.331C1.52031 10.1824 0.875 8.62445 0.875 7C0.875 5.37555 1.52031 3.81763 2.66897 2.66897C3.81763 1.52031 5.37555 0.875 7 0.875C8.62445 0.875 10.1824 1.52031 11.331 2.66897C12.4797 3.81763 13.125 5.37555 13.125 7C13.125 8.62445 12.4797 10.1824 11.331 11.331C10.1824 12.4797 8.62445 13.125 7 13.125ZM7 14C8.85652 14 10.637 13.2625 11.9497 11.9497C13.2625 10.637 14 8.85652 14 7C14 5.14348 13.2625 3.36301 11.9497 2.05025C10.637 0.737498 8.85652 0 7 0C5.14348 0 3.36301 0.737498 2.05025 2.05025C0.737498 3.36301 0 5.14348 0 7C0 8.85652 0.737498 10.637 2.05025 11.9497C3.36301 13.2625 5.14348 14 7 14Z" fill="#EFA220"/>
<path d="M3.74999 8.37113C3.85047 8.31311 3.96989 8.29739 4.08196 8.32742C4.19404 8.35745 4.28959 8.43077 4.34761 8.53125C4.61633 8.99705 5.00303 9.38382 5.46878 9.65264C5.93452 9.92145 6.46286 10.0628 7.00061 10.0625C7.53836 10.0628 8.06671 9.92145 8.53245 9.65264C8.99819 9.38382 9.38489 8.99705 9.65361 8.53125C9.68213 8.48109 9.72029 8.43707 9.76589 8.40172C9.81149 8.36637 9.86363 8.34039 9.91931 8.32527C9.97499 8.31015 10.0331 8.3062 10.0903 8.31364C10.1475 8.32107 10.2027 8.33975 10.2527 8.3686C10.3027 8.39745 10.3464 8.4359 10.3815 8.48173C10.4165 8.52757 10.4422 8.57988 10.4569 8.63566C10.4717 8.69144 10.4752 8.74959 10.4674 8.80675C10.4596 8.86392 10.4405 8.91898 10.4114 8.96875C10.0658 9.56756 9.56869 10.0648 8.96994 10.4104C8.37118 10.756 7.69196 10.9378 7.00061 10.9375C6.30927 10.9378 5.63004 10.756 5.03129 10.4104C4.43253 10.0648 3.93538 9.56756 3.58986 8.96875C3.53185 8.86827 3.51613 8.74885 3.54616 8.63678C3.57619 8.5247 3.64951 8.42914 3.74999 8.37113ZM6.12561 5.6875C6.12561 6.412 5.73361 7 5.25061 7C4.76761 7 4.37561 6.412 4.37561 5.6875C4.37561 4.963 4.76761 4.375 5.25061 4.375C5.73361 4.375 6.12561 4.963 6.12561 5.6875ZM9.62561 5.6875C9.62561 6.412 9.23361 7 8.75061 7C8.26761 7 7.87561 6.412 7.87561 5.6875C7.87561 4.963 8.26761 4.375 8.75061 4.375C9.23361 4.375 9.62561 4.963 9.62561 5.6875Z" fill="#EFA220"/>
</svg>
