<svg width="19" height="21" viewBox="0 0 19 21" fill="none" xmlns="http://www.w3.org/2000/svg">
<path d="M18.5338 13.2918C18.5338 12.8157 18.3588 12.3841 18.0785 12.0477C18.6268 11.7144 19 11.1043 19 10.4005C19 9.34284 18.1675 8.48275 17.1446 8.48275H12.639L12.5469 8.48434C12.444 8.48751 12.2297 8.49307 11.6967 8.49942C11.5554 8.50259 11.4134 8.47482 11.2805 8.41928C11.1438 8.36215 11.0163 8.27725 10.9096 8.16855C10.7091 7.96543 10.5986 7.70122 10.5955 7.42748V7.16962V3.22703C10.5955 2.20985 10.2968 1.40689 9.70773 0.839585C8.74011 -0.0903216 7.35548 0.000130174 7.29712 0.00409735L6.86476 0.0358348V3.14848L5.17218 9.07307C5.11996 9.2873 4.93412 9.43567 4.71986 9.43567H3.09333V8.48196H0V9.44598H2.16103V20.0368H0V21H3.09333V20.0511H4.14312C4.38887 20.0511 4.63538 20.0733 4.87729 20.1177L9.23851 20.9167C9.53878 20.9722 9.84596 21 10.1516 21H14.1204V20.9929H15.7454C16.7691 20.9929 17.6016 20.1328 17.6016 19.0751C17.6016 18.5983 17.4257 18.1666 17.1462 17.831C17.6952 17.4978 18.0685 16.8868 18.0685 16.1831C18.0685 15.707 17.8926 15.2754 17.6131 14.9389C18.1614 14.6057 18.5346 13.9955 18.5346 13.2918H18.5338ZM12.5438 14.7374C12.3149 14.9953 12.1721 15.3349 12.1721 15.711V16.6559C12.1721 17.032 12.3149 17.3716 12.5438 17.6295C12.3149 17.8874 12.1721 18.2269 12.1721 18.603V19.548C12.1721 19.721 12.2067 19.8844 12.2612 20.0384H10.1516C9.90049 20.0384 9.6486 20.0153 9.40132 19.9701L5.0401 19.1711C4.7452 19.1172 4.44339 19.0894 4.14312 19.0894H3.13249V10.4029H4.71986C5.36033 10.4029 5.91787 9.95537 6.07146 9.33094L7.77786 3.35795L7.79629 0.990338C8.16107 1.03715 8.68328 1.17203 9.0757 1.55209C9.46506 1.92897 9.66242 2.4939 9.66242 3.22941V7.48223C9.71004 8.44308 10.3897 9.23176 11.2797 9.41345V9.4206C11.4195 9.45154 11.5631 9.46661 11.7067 9.46582C11.9494 9.46265 12.1245 9.46027 12.2558 9.45789C12.2059 9.60705 12.1729 9.76495 12.1729 9.93077V10.875C12.1729 11.205 12.2835 11.5081 12.4647 11.7509C12.49 11.7842 12.5169 11.8176 12.5453 11.8485C12.3165 12.1064 12.1736 12.446 12.1736 12.8221V13.767C12.1736 14.1431 12.3165 14.4827 12.5453 14.7406L12.5438 14.7374ZM15.7446 20.0288H13.5713C13.3141 20.0288 13.1052 19.8122 13.1052 19.5472V18.6022C13.1052 18.3364 13.3148 18.1206 13.5713 18.1206H15.7446C16.2538 18.1206 16.6677 18.5483 16.6677 19.0743C16.6677 19.6004 16.2538 20.028 15.7446 20.028V20.0288ZM16.2108 17.1376H13.5713C13.3141 17.1376 13.1052 16.9209 13.1052 16.6559V15.711C13.1052 15.4452 13.3148 15.2293 13.5713 15.2293H16.2108C16.7199 15.2293 17.1339 15.6578 17.1339 16.1831C17.1339 16.7083 16.7199 17.1376 16.2108 17.1376ZM16.6769 14.2463H13.5706C13.3133 14.2463 13.1044 14.0297 13.1044 13.7647V12.8197C13.1044 12.5539 13.3141 12.3381 13.5706 12.3381H16.6769C17.1853 12.3381 17.6 12.7665 17.6 13.2918C17.6 13.817 17.1853 14.2463 16.6769 14.2463ZM17.1431 11.3542H13.5706C13.3133 11.3542 13.1044 11.1384 13.1044 10.8726V9.92839C13.1044 9.66497 13.311 9.45075 13.5652 9.44757H15.3L16.4066 9.44598H17.1431C17.6515 9.44598 18.0662 9.87365 18.0662 10.3997C18.0662 10.9257 17.6515 11.3534 17.1431 11.3534V11.3542Z" fill="#EFA220"/>
</svg>
