<svg width="18" height="16" viewBox="0 0 18 16" fill="none" xmlns="http://www.w3.org/2000/svg">
<path d="M8.91969 10.3665C9.51512 10.3665 10.0862 10.13 10.5072 9.70896C10.9282 9.28794 11.1647 8.7169 11.1647 8.12148C11.1647 8.05573 11.1617 7.99058 11.1561 7.92624L8.72445 10.3579C8.7888 10.3635 8.85375 10.3665 8.91969 10.3665ZM16.3508 1.17707L15.4945 0.321544C15.4644 0.291493 15.4236 0.274612 15.3811 0.274612C15.3386 0.274612 15.2978 0.291493 15.2678 0.321544L13.0764 2.51347C11.8676 1.89568 10.5087 1.58679 8.99987 1.58679C5.14721 1.58679 2.27275 3.5933 0.376493 7.60632C0.300272 7.76771 0.260742 7.94399 0.260742 8.12248C0.260742 8.30097 0.300272 8.47724 0.376493 8.63864C1.1342 10.2346 2.04658 11.5138 3.11364 12.4763L0.993079 14.596C0.963028 14.6261 0.946147 14.6669 0.946147 14.7094C0.946147 14.7519 0.963028 14.7927 0.993079 14.8227L1.8488 15.6785C1.87887 15.7085 1.91964 15.7254 1.96216 15.7254C2.00467 15.7254 2.04544 15.7085 2.07551 15.6785L16.3508 1.40398C16.3657 1.38908 16.3775 1.3714 16.3856 1.35193C16.3937 1.33246 16.3978 1.3116 16.3978 1.29052C16.3978 1.26945 16.3937 1.24858 16.3856 1.22911C16.3775 1.20965 16.3657 1.19196 16.3508 1.17707ZM5.39176 8.12148C5.39171 7.51212 5.54949 6.91313 5.84973 6.38288C6.14997 5.85262 6.58244 5.40917 7.105 5.09573C7.62756 4.78229 8.2224 4.60955 8.83157 4.59433C9.44074 4.5791 10.0435 4.72193 10.581 5.00888L9.60644 5.98347C9.21339 5.85762 8.79328 5.84246 8.39219 5.93966C7.9911 6.03686 7.62453 6.24267 7.33271 6.53449C7.04088 6.82631 6.83508 7.19288 6.73788 7.59397C6.64068 7.99506 6.65584 8.41518 6.78169 8.80822L5.8071 9.78281C5.5336 9.27182 5.39091 8.70105 5.39176 8.12148Z" fill="#EA8215"/>
<path d="M17.6241 7.60386C16.9186 6.11785 16.0787 4.90613 15.1047 3.96869L12.2154 6.85818C12.4589 7.49484 12.5129 8.18841 12.3708 8.85509C12.2287 9.52176 11.8966 10.133 11.4146 10.615C10.9326 11.097 10.3213 11.4292 9.65464 11.5713C8.98796 11.7134 8.2944 11.6594 7.65774 11.4158L5.20703 13.8665C6.34399 14.3927 7.60856 14.6557 9.00076 14.6557C12.8534 14.6557 15.7279 12.6492 17.6241 8.63618C17.7004 8.47479 17.7399 8.29851 17.7399 8.12002C17.7399 7.94153 17.7004 7.76525 17.6241 7.60386Z" fill="#EA8215"/>
</svg>
