<svg width="14" height="16" viewBox="0 0 14 16" fill="none" xmlns="http://www.w3.org/2000/svg">
<path d="M13.9938 10.6757V0.891708C13.9932 0.758107 13.9629 0.626361 13.9053 0.506253C13.8477 0.386146 13.7642 0.280764 13.661 0.197932C13.5593 0.114342 13.4404 0.0549723 13.3131 0.0241876C13.1858 -0.006597 13.0533 -0.00801411 12.9254 0.0200403L5.04402 1.79895C4.84945 1.84352 4.67569 1.95421 4.55149 2.11271C4.42728 2.27122 4.36007 2.46804 4.36096 2.67062V10.0887C3.76314 9.80203 3.08993 9.71999 2.44231 9.85487C1.7947 9.98975 1.2076 10.3343 0.7691 10.8368C0.330597 11.3393 0.0643314 11.9726 0.0102476 12.6418C-0.0438363 13.3111 0.117178 13.98 0.469135 14.5484C0.821092 15.1168 1.34502 15.554 1.96231 15.7943C2.5796 16.0347 3.25697 16.0652 3.89281 15.8814C4.52865 15.6976 5.08867 15.3094 5.48886 14.7749C5.88905 14.2405 6.10783 13.5886 6.11238 12.9172C6.12144 12.7631 6.12144 12.6087 6.11238 12.4546V3.38219L12.2423 2.00353V8.30977C11.6442 8.02294 10.9706 7.94096 10.3226 8.07614C9.67469 8.21133 9.08742 8.55637 8.64901 9.05946C8.21061 9.56255 7.94474 10.1965 7.89132 10.8662C7.83791 11.5358 7.99983 12.205 8.35279 12.7732C8.70574 13.3414 9.23066 13.778 9.84872 14.0174C10.4668 14.2567 11.1446 14.286 11.7804 14.1007C12.4162 13.9154 12.9757 13.5256 13.3748 12.9898C13.7739 12.454 13.9911 11.8012 13.9938 11.1293C14.0021 10.9783 14.0021 10.8268 13.9938 10.6757V10.6757Z" fill="white"/>
</svg>
