<svg width="61" height="61" viewBox="0 0 61 61" fill="none" xmlns="http://www.w3.org/2000/svg">
<path d="M23 11.75H19.25C18.2554 11.75 17.3016 12.1451 16.5984 12.8483C15.8951 13.5516 15.5 14.5054 15.5 15.5V45.5C15.5 46.4946 15.8951 47.4484 16.5984 48.1516C17.3016 48.8549 18.2554 49.25 19.25 49.25H23C23.9946 49.25 24.9484 48.8549 25.6516 48.1516C26.3549 47.4484 26.75 46.4946 26.75 45.5V15.5C26.75 14.5054 26.3549 13.5516 25.6516 12.8483C24.9484 12.1451 23.9946 11.75 23 11.75ZM41.75 11.75H38C37.0054 11.75 36.0516 12.1451 35.3484 12.8483C34.6451 13.5516 34.25 14.5054 34.25 15.5V45.5C34.25 46.4946 34.6451 47.4484 35.3484 48.1516C36.0516 48.8549 37.0054 49.25 38 49.25H41.75C42.7446 49.25 43.6984 48.8549 44.4016 48.1516C45.1049 47.4484 45.5 46.4946 45.5 45.5V15.5C45.5 14.5054 45.1049 13.5516 44.4016 12.8483C43.6984 12.1451 42.7446 11.75 41.75 11.75Z" fill="white"/>
</svg>
