<svg width="17" height="14" viewBox="0 0 17 14" fill="none" xmlns="http://www.w3.org/2000/svg">
<path d="M4.10657 11.104L3.96707 10.8326H3.66187H2.42857C1.3453 10.8326 0.5 9.99215 0.5 8.99739V2.33519C0.5 1.34043 1.3453 0.5 2.42857 0.5H14.5714C15.6547 0.5 16.5 1.34043 16.5 2.33519V8.99739C16.5 9.99215 15.6547 10.8326 14.5714 10.8326H7.21958H6.87529L6.75248 11.1542C6.63092 11.4726 6.35471 11.7912 5.94811 12.0967C5.54671 12.3984 5.05685 12.6586 4.57006 12.8727C4.50935 12.8994 4.44892 12.9253 4.38897 12.9503C4.40418 12.894 4.41688 12.8371 4.42712 12.7795C4.53817 12.1554 4.34071 11.5596 4.10657 11.104Z" stroke="#E29A20"/>
</svg>
