<svg width="35" height="55" viewBox="0 0 35 55" fill="none" xmlns="http://www.w3.org/2000/svg">
<path d="M7.37549 10.625C7.37549 7.93977 8.4422 5.36449 10.341 3.46573C12.2397 1.56697 14.815 0.500259 17.5002 0.500259C20.1855 0.500259 22.7608 1.56697 24.6595 3.46573C26.5583 5.36449 27.625 7.93977 27.625 10.625V27.4996C27.625 30.1849 26.5583 32.7601 24.6595 34.6589C22.7608 36.5577 20.1855 37.6244 17.5002 37.6244C14.815 37.6244 12.2397 36.5577 10.341 34.6589C8.4422 32.7601 7.37549 30.1849 7.37549 27.4996V10.625Z" fill="#232222"/>
<path d="M2.31295 22.438C2.76049 22.438 3.1897 22.6158 3.50616 22.9322C3.82262 23.2487 4.00041 23.6779 4.00041 24.1255V27.5004C4.00041 31.0807 5.42269 34.5144 7.95437 37.0461C10.4861 39.5778 13.9197 41.0001 17.5001 41.0001C21.0804 41.0001 24.5141 39.5778 27.0458 37.0461C29.5775 34.5144 30.9998 31.0807 30.9998 27.5004V24.1255C30.9998 23.6779 31.1775 23.2487 31.494 22.9322C31.8105 22.6158 32.2397 22.438 32.6872 22.438C33.1348 22.438 33.564 22.6158 33.8804 22.9322C34.1969 23.2487 34.3747 23.6779 34.3747 24.1255V27.5004C34.3747 31.6837 32.8209 35.7179 30.0147 38.8203C27.2085 41.9228 23.3499 43.8723 19.1875 44.2906V51.1248H29.3123C29.7598 51.1248 30.1891 51.3026 30.5055 51.6191C30.822 51.9355 30.9998 52.3647 30.9998 52.8123C30.9998 53.2598 30.822 53.689 30.5055 54.0055C30.1891 54.322 29.7598 54.4997 29.3123 54.4997H5.68787C5.24033 54.4997 4.81111 54.322 4.49465 54.0055C4.17819 53.689 4.00041 53.2598 4.00041 52.8123C4.00041 52.3647 4.17819 51.9355 4.49465 51.6191C4.81111 51.3026 5.24033 51.1248 5.68787 51.1248H15.8126V44.2906C11.6503 43.8723 7.79171 41.9228 4.98548 38.8203C2.17925 35.7179 0.625436 31.6837 0.625488 27.5004V24.1255C0.625488 23.6779 0.803274 23.2487 1.11973 22.9322C1.43619 22.6158 1.86541 22.438 2.31295 22.438Z" fill="#232222"/>
</svg>
