<svg width="18" height="14" viewBox="0 0 18 14" fill="none" xmlns="http://www.w3.org/2000/svg">
<path d="M6.7384 7C6.7384 7.59226 6.96846 8.16027 7.37796 8.57906C7.78747 8.99785 8.34288 9.23313 8.92201 9.23313C9.50114 9.23313 10.0566 8.99785 10.4661 8.57906C10.8756 8.16027 11.1056 7.59226 11.1056 7C11.1056 6.40774 10.8756 5.83973 10.4661 5.42094C10.0566 5.00215 9.50114 4.76687 8.92201 4.76687C8.34288 4.76687 7.78747 5.00215 7.37796 5.42094C6.96846 5.83973 6.7384 6.40774 6.7384 7ZM17.3874 6.48558C15.5391 2.50383 12.7453 0.5 9 0.5C5.25276 0.5 2.46086 2.50383 0.612583 6.48758C0.538448 6.64812 0.5 6.82345 0.5 7.001C0.5 7.17854 0.538448 7.35388 0.612583 7.51442C2.46086 11.4962 5.25471 13.5 9 13.5C12.7472 13.5 15.5391 11.4962 17.3874 7.51242C17.5375 7.18942 17.5375 6.81457 17.3874 6.48558ZM8.92201 10.5092C7.02695 10.5092 5.49062 8.93804 5.49062 7C5.49062 5.06196 7.02695 3.4908 8.92201 3.4908C10.8171 3.4908 12.3534 5.06196 12.3534 7C12.3534 8.93804 10.8171 10.5092 8.92201 10.5092Z" fill="white"/>
</svg>
