<svg width="16" height="14" viewBox="0 0 16 14" fill="none" xmlns="http://www.w3.org/2000/svg">
<path d="M9.246 0.565189C9.32305 0.608731 9.38716 0.671942 9.43178 0.748366C9.47641 0.824791 9.49995 0.91169 9.5 1.00019V13.0002C9.50002 13.0887 9.47657 13.1755 9.43203 13.252C9.3875 13.3284 9.32349 13.3917 9.24652 13.4353C9.16956 13.4789 9.08239 13.5013 8.99394 13.5003C8.90548 13.4992 8.81889 13.4747 8.743 13.4292L3.862 10.5002H2C1.60218 10.5002 1.22064 10.3422 0.93934 10.0608C0.658035 9.77954 0.5 9.39801 0.5 9.00019L0.5 4.99719C0.500265 4.59954 0.658417 4.21826 0.939693 3.93718C1.22097 3.65609 1.60235 3.49819 2 3.49819H3.862L8.742 0.571189C8.81795 0.525645 8.90464 0.50109 8.99319 0.500035C9.08174 0.498981 9.16899 0.521466 9.246 0.565189ZM14.354 3.64419L14 3.29119L13.293 3.99819L13.644 4.35019L13.647 4.35219L13.667 4.37419C13.8175 4.55821 13.947 4.75845 14.053 4.97119C14.273 5.41019 14.5 6.08319 14.5 6.99619C14.5 7.90919 14.272 8.58219 14.053 9.02119C13.9687 9.19172 13.8693 9.35437 13.756 9.50719C13.7213 9.55309 13.6846 9.59747 13.646 9.64019L13.644 9.64319L13.293 9.99319L14 10.7012L14.354 10.3482L14 9.99419L14.354 10.3482L14.355 10.3462L14.357 10.3442L14.362 10.3392L14.376 10.3252L14.419 10.2772C14.454 10.2372 14.501 10.1802 14.556 10.1072C14.666 9.96119 14.807 9.74719 14.947 9.46819C15.227 8.90819 15.5 8.08219 15.5 6.99619C15.5 5.91019 15.228 5.08519 14.947 4.52419C14.8363 4.29998 14.7058 4.08613 14.557 3.88519C14.5002 3.80995 14.4398 3.73753 14.376 3.66819L14.362 3.65319L14.357 3.64819L14.355 3.64619C14.355 3.64519 14.353 3.64419 14 3.99819L14.354 3.64419V3.64419Z" fill="white"/>
</svg>
